<mxfile host="app.diagrams.net" agent="Mozilla/5.0 (Windows NT 10.0; Win64; x64) AppleWebKit/537.36 (KHTML, like Gecko) Chrome/133.0.0.0 Safari/537.36" version="26.0.16">
  <diagram name="Page-1" id="-H_mtQnk-PTXWXPvYvuk">
    <mxGraphModel grid="1" page="1" gridSize="10" guides="1" tooltips="1" connect="1" arrows="1" fold="1" pageScale="1" pageWidth="1169" pageHeight="827" math="0" shadow="0">
      <root>
        <mxCell id="0" />
        <mxCell id="1" parent="0" />
        <mxCell id="gtYos5K_JwhXjd1n2EaG-4" style="edgeStyle=orthogonalEdgeStyle;rounded=0;orthogonalLoop=1;jettySize=auto;html=1;exitX=1;exitY=0.5;exitDx=0;exitDy=0;entryX=0;entryY=0.5;entryDx=0;entryDy=0;" edge="1" parent="1" source="zA23MoTUsTF4_91t8viU-3" target="DQjDPUIfwDiO1YcdLPUU-2">
          <mxGeometry relative="1" as="geometry" />
        </mxCell>
        <mxCell id="gtYos5K_JwhXjd1n2EaG-5" style="edgeStyle=orthogonalEdgeStyle;rounded=0;orthogonalLoop=1;jettySize=auto;html=1;exitX=1;exitY=0.5;exitDx=0;exitDy=0;entryX=1;entryY=0.5;entryDx=0;entryDy=0;startArrow=classic;startFill=1;" edge="1" parent="1" source="zA23MoTUsTF4_91t8viU-3" target="gtYos5K_JwhXjd1n2EaG-1">
          <mxGeometry relative="1" as="geometry">
            <Array as="points">
              <mxPoint x="530" y="444" />
              <mxPoint x="530" y="320" />
            </Array>
          </mxGeometry>
        </mxCell>
        <mxCell id="KLS0kWJ8PBOq_Mr_JFed-26" style="edgeStyle=orthogonalEdgeStyle;rounded=0;orthogonalLoop=1;jettySize=auto;html=1;exitX=1;exitY=0.5;exitDx=0;exitDy=0;entryX=1;entryY=0.5;entryDx=0;entryDy=0;endArrow=none;startFill=0;dashed=1;" edge="1" parent="1" source="zA23MoTUsTF4_91t8viU-3" target="KLS0kWJ8PBOq_Mr_JFed-5">
          <mxGeometry relative="1" as="geometry">
            <Array as="points">
              <mxPoint x="560" y="444" />
              <mxPoint x="560" y="680" />
            </Array>
          </mxGeometry>
        </mxCell>
        <mxCell id="zA23MoTUsTF4_91t8viU-3" value="pymongo-api" style="rounded=1;whiteSpace=wrap;html=1;" vertex="1" parent="1">
          <mxGeometry x="380" y="414" width="120" height="60" as="geometry" />
        </mxCell>
        <mxCell id="DQjDPUIfwDiO1YcdLPUU-7" style="edgeStyle=orthogonalEdgeStyle;rounded=0;orthogonalLoop=1;jettySize=auto;html=1;exitX=0.5;exitY=0;exitDx=0;exitDy=0;entryX=0.5;entryY=1;entryDx=0;entryDy=0;startArrow=classic;startFill=1;dashed=1;" edge="1" parent="1" source="DQjDPUIfwDiO1YcdLPUU-2" target="DQjDPUIfwDiO1YcdLPUU-4">
          <mxGeometry relative="1" as="geometry" />
        </mxCell>
        <mxCell id="pzGVFroYw7n3C-Ta2NJc-1" value="" style="rounded=0;whiteSpace=wrap;html=1;" vertex="1" parent="1">
          <mxGeometry x="780" y="90" width="220" height="200" as="geometry" />
        </mxCell>
        <mxCell id="pzGVFroYw7n3C-Ta2NJc-8" style="edgeStyle=orthogonalEdgeStyle;rounded=0;orthogonalLoop=1;jettySize=auto;html=1;exitX=1;exitY=0.5;exitDx=0;exitDy=0;entryX=0;entryY=0.5;entryDx=0;entryDy=0;" edge="1" parent="1" source="DQjDPUIfwDiO1YcdLPUU-2" target="pzGVFroYw7n3C-Ta2NJc-1">
          <mxGeometry relative="1" as="geometry" />
        </mxCell>
        <mxCell id="pzGVFroYw7n3C-Ta2NJc-9" style="edgeStyle=orthogonalEdgeStyle;rounded=0;orthogonalLoop=1;jettySize=auto;html=1;exitX=1;exitY=0.5;exitDx=0;exitDy=0;entryX=0;entryY=0.5;entryDx=0;entryDy=0;startArrow=classic;startFill=1;" edge="1" parent="1" source="DQjDPUIfwDiO1YcdLPUU-2" target="pzGVFroYw7n3C-Ta2NJc-4">
          <mxGeometry relative="1" as="geometry" />
        </mxCell>
        <mxCell id="DQjDPUIfwDiO1YcdLPUU-2" value="mongos_router" style="rounded=1;whiteSpace=wrap;html=1;" vertex="1" parent="1">
          <mxGeometry x="560" y="290" width="120" height="60" as="geometry" />
        </mxCell>
        <mxCell id="pzGVFroYw7n3C-Ta2NJc-21" style="edgeStyle=orthogonalEdgeStyle;rounded=0;orthogonalLoop=1;jettySize=auto;html=1;exitX=1;exitY=0.25;exitDx=0;exitDy=0;entryX=0;entryY=0.225;entryDx=0;entryDy=0;dashed=1;entryPerimeter=0;" edge="1" parent="1" source="DQjDPUIfwDiO1YcdLPUU-4" target="pzGVFroYw7n3C-Ta2NJc-1">
          <mxGeometry relative="1" as="geometry" />
        </mxCell>
        <mxCell id="pzGVFroYw7n3C-Ta2NJc-22" style="edgeStyle=orthogonalEdgeStyle;rounded=0;orthogonalLoop=1;jettySize=auto;html=1;exitX=1;exitY=0.25;exitDx=0;exitDy=0;entryX=0;entryY=0.75;entryDx=0;entryDy=0;dashed=1;startArrow=classic;startFill=1;" edge="1" parent="1" source="DQjDPUIfwDiO1YcdLPUU-4" target="pzGVFroYw7n3C-Ta2NJc-4">
          <mxGeometry relative="1" as="geometry">
            <Array as="points">
              <mxPoint x="710" y="135" />
              <mxPoint x="710" y="480" />
            </Array>
          </mxGeometry>
        </mxCell>
        <mxCell id="DQjDPUIfwDiO1YcdLPUU-4" value="" style="rounded=1;whiteSpace=wrap;html=1;" vertex="1" parent="1">
          <mxGeometry x="560" y="100" width="120" height="140" as="geometry" />
        </mxCell>
        <mxCell id="DQjDPUIfwDiO1YcdLPUU-8" value="shard1-primary" style="shape=cylinder3;whiteSpace=wrap;html=1;boundedLbl=1;backgroundOutline=1;size=15;" vertex="1" parent="1">
          <mxGeometry x="790" y="140" width="70" height="80" as="geometry" />
        </mxCell>
        <mxCell id="pzGVFroYw7n3C-Ta2NJc-2" value="shard1-secondary1" style="shape=cylinder3;whiteSpace=wrap;html=1;boundedLbl=1;backgroundOutline=1;size=15;" vertex="1" parent="1">
          <mxGeometry x="910" y="100" width="70" height="80" as="geometry" />
        </mxCell>
        <mxCell id="pzGVFroYw7n3C-Ta2NJc-3" value="shard1-secondary2" style="shape=cylinder3;whiteSpace=wrap;html=1;boundedLbl=1;backgroundOutline=1;size=15;" vertex="1" parent="1">
          <mxGeometry x="910" y="200" width="70" height="80" as="geometry" />
        </mxCell>
        <mxCell id="pzGVFroYw7n3C-Ta2NJc-4" value="" style="rounded=0;whiteSpace=wrap;html=1;" vertex="1" parent="1">
          <mxGeometry x="780" y="330" width="220" height="200" as="geometry" />
        </mxCell>
        <mxCell id="pzGVFroYw7n3C-Ta2NJc-5" value="shard2-primary" style="shape=cylinder3;whiteSpace=wrap;html=1;boundedLbl=1;backgroundOutline=1;size=15;" vertex="1" parent="1">
          <mxGeometry x="790" y="380" width="70" height="80" as="geometry" />
        </mxCell>
        <mxCell id="pzGVFroYw7n3C-Ta2NJc-6" value="shard2-secondary1" style="shape=cylinder3;whiteSpace=wrap;html=1;boundedLbl=1;backgroundOutline=1;size=15;" vertex="1" parent="1">
          <mxGeometry x="910" y="340" width="70" height="80" as="geometry" />
        </mxCell>
        <mxCell id="pzGVFroYw7n3C-Ta2NJc-7" value="shard2-secondary2" style="shape=cylinder3;whiteSpace=wrap;html=1;boundedLbl=1;backgroundOutline=1;size=15;" vertex="1" parent="1">
          <mxGeometry x="910" y="440" width="70" height="80" as="geometry" />
        </mxCell>
        <mxCell id="pzGVFroYw7n3C-Ta2NJc-10" style="edgeStyle=orthogonalEdgeStyle;rounded=0;orthogonalLoop=1;jettySize=auto;html=1;exitX=1;exitY=0.5;exitDx=0;exitDy=0;exitPerimeter=0;entryX=0;entryY=0.5;entryDx=0;entryDy=0;entryPerimeter=0;" edge="1" parent="1" source="pzGVFroYw7n3C-Ta2NJc-5" target="pzGVFroYw7n3C-Ta2NJc-6">
          <mxGeometry relative="1" as="geometry" />
        </mxCell>
        <mxCell id="pzGVFroYw7n3C-Ta2NJc-11" style="edgeStyle=orthogonalEdgeStyle;rounded=0;orthogonalLoop=1;jettySize=auto;html=1;exitX=1;exitY=0.5;exitDx=0;exitDy=0;exitPerimeter=0;entryX=0;entryY=0.5;entryDx=0;entryDy=0;entryPerimeter=0;" edge="1" parent="1" source="pzGVFroYw7n3C-Ta2NJc-5" target="pzGVFroYw7n3C-Ta2NJc-7">
          <mxGeometry relative="1" as="geometry" />
        </mxCell>
        <mxCell id="pzGVFroYw7n3C-Ta2NJc-12" style="edgeStyle=orthogonalEdgeStyle;rounded=0;orthogonalLoop=1;jettySize=auto;html=1;exitX=1;exitY=0.5;exitDx=0;exitDy=0;exitPerimeter=0;entryX=0;entryY=0.5;entryDx=0;entryDy=0;entryPerimeter=0;" edge="1" parent="1" source="DQjDPUIfwDiO1YcdLPUU-8" target="pzGVFroYw7n3C-Ta2NJc-2">
          <mxGeometry relative="1" as="geometry" />
        </mxCell>
        <mxCell id="pzGVFroYw7n3C-Ta2NJc-13" style="edgeStyle=orthogonalEdgeStyle;rounded=0;orthogonalLoop=1;jettySize=auto;html=1;exitX=1;exitY=0.5;exitDx=0;exitDy=0;exitPerimeter=0;entryX=0;entryY=0.5;entryDx=0;entryDy=0;entryPerimeter=0;" edge="1" parent="1" source="DQjDPUIfwDiO1YcdLPUU-8" target="pzGVFroYw7n3C-Ta2NJc-3">
          <mxGeometry relative="1" as="geometry" />
        </mxCell>
        <mxCell id="pzGVFroYw7n3C-Ta2NJc-15" value="shard1 (shard1ReplSet)" style="text;strokeColor=none;fillColor=none;align=left;verticalAlign=middle;spacingLeft=4;spacingRight=4;overflow=hidden;points=[[0,0.5],[1,0.5]];portConstraint=eastwest;rotatable=0;whiteSpace=wrap;html=1;" vertex="1" parent="1">
          <mxGeometry x="780" y="90" width="120" height="40" as="geometry" />
        </mxCell>
        <mxCell id="pzGVFroYw7n3C-Ta2NJc-17" value="configReplSet" style="text;html=1;align=center;verticalAlign=middle;whiteSpace=wrap;rounded=0;" vertex="1" parent="1">
          <mxGeometry x="580" y="100" width="60" height="30" as="geometry" />
        </mxCell>
        <mxCell id="gtYos5K_JwhXjd1n2EaG-1" value="redis" style="rounded=1;whiteSpace=wrap;html=1;" vertex="1" parent="1">
          <mxGeometry x="380" y="290" width="120" height="60" as="geometry" />
        </mxCell>
        <mxCell id="KLS0kWJ8PBOq_Mr_JFed-27" style="edgeStyle=orthogonalEdgeStyle;rounded=0;orthogonalLoop=1;jettySize=auto;html=1;exitX=1;exitY=0.5;exitDx=0;exitDy=0;endArrow=none;startFill=0;dashed=1;" edge="1" parent="1" source="KLS0kWJ8PBOq_Mr_JFed-2">
          <mxGeometry relative="1" as="geometry">
            <mxPoint x="560" y="520" as="targetPoint" />
          </mxGeometry>
        </mxCell>
        <mxCell id="KLS0kWJ8PBOq_Mr_JFed-30" style="edgeStyle=orthogonalEdgeStyle;rounded=0;orthogonalLoop=1;jettySize=auto;html=1;exitX=1;exitY=0.5;exitDx=0;exitDy=0;startArrow=classic;startFill=1;endArrow=none;" edge="1" parent="1" source="KLS0kWJ8PBOq_Mr_JFed-2">
          <mxGeometry relative="1" as="geometry">
            <mxPoint x="530" y="440" as="targetPoint" />
          </mxGeometry>
        </mxCell>
        <mxCell id="KLS0kWJ8PBOq_Mr_JFed-2" value="pymongo-api" style="rounded=1;whiteSpace=wrap;html=1;" vertex="1" parent="1">
          <mxGeometry x="380" y="490" width="120" height="60" as="geometry" />
        </mxCell>
        <mxCell id="KLS0kWJ8PBOq_Mr_JFed-28" style="edgeStyle=orthogonalEdgeStyle;rounded=0;orthogonalLoop=1;jettySize=auto;html=1;exitX=1;exitY=0.5;exitDx=0;exitDy=0;endArrow=none;startFill=0;dashed=1;" edge="1" parent="1" source="KLS0kWJ8PBOq_Mr_JFed-3">
          <mxGeometry relative="1" as="geometry">
            <mxPoint x="560" y="600" as="targetPoint" />
          </mxGeometry>
        </mxCell>
        <mxCell id="KLS0kWJ8PBOq_Mr_JFed-31" style="edgeStyle=orthogonalEdgeStyle;rounded=0;orthogonalLoop=1;jettySize=auto;html=1;exitX=1;exitY=0.5;exitDx=0;exitDy=0;endArrow=none;startFill=1;startArrow=classic;" edge="1" parent="1" source="KLS0kWJ8PBOq_Mr_JFed-3">
          <mxGeometry relative="1" as="geometry">
            <mxPoint x="530" y="520" as="targetPoint" />
          </mxGeometry>
        </mxCell>
        <mxCell id="KLS0kWJ8PBOq_Mr_JFed-3" value="pymongo-api" style="rounded=1;whiteSpace=wrap;html=1;" vertex="1" parent="1">
          <mxGeometry x="380" y="570" width="120" height="60" as="geometry" />
        </mxCell>
        <mxCell id="KLS0kWJ8PBOq_Mr_JFed-8" style="edgeStyle=orthogonalEdgeStyle;rounded=0;orthogonalLoop=1;jettySize=auto;html=1;exitX=1;exitY=0.5;exitDx=0;exitDy=0;entryX=0;entryY=0.5;entryDx=0;entryDy=0;" edge="1" parent="1" source="KLS0kWJ8PBOq_Mr_JFed-4" target="zA23MoTUsTF4_91t8viU-3">
          <mxGeometry relative="1" as="geometry" />
        </mxCell>
        <mxCell id="KLS0kWJ8PBOq_Mr_JFed-9" style="edgeStyle=orthogonalEdgeStyle;rounded=0;orthogonalLoop=1;jettySize=auto;html=1;exitX=1;exitY=0.5;exitDx=0;exitDy=0;entryX=0;entryY=0.5;entryDx=0;entryDy=0;" edge="1" parent="1" source="KLS0kWJ8PBOq_Mr_JFed-4" target="KLS0kWJ8PBOq_Mr_JFed-3">
          <mxGeometry relative="1" as="geometry" />
        </mxCell>
        <mxCell id="KLS0kWJ8PBOq_Mr_JFed-10" style="edgeStyle=orthogonalEdgeStyle;rounded=0;orthogonalLoop=1;jettySize=auto;html=1;exitX=1;exitY=0.5;exitDx=0;exitDy=0;entryX=0;entryY=0.5;entryDx=0;entryDy=0;" edge="1" parent="1" source="KLS0kWJ8PBOq_Mr_JFed-4" target="KLS0kWJ8PBOq_Mr_JFed-2">
          <mxGeometry relative="1" as="geometry" />
        </mxCell>
        <mxCell id="KLS0kWJ8PBOq_Mr_JFed-11" style="edgeStyle=orthogonalEdgeStyle;rounded=0;orthogonalLoop=1;jettySize=auto;html=1;exitX=0.5;exitY=1;exitDx=0;exitDy=0;entryX=0.5;entryY=0;entryDx=0;entryDy=0;dashed=1;endArrow=none;startFill=0;" edge="1" parent="1" source="KLS0kWJ8PBOq_Mr_JFed-17" target="KLS0kWJ8PBOq_Mr_JFed-5">
          <mxGeometry relative="1" as="geometry" />
        </mxCell>
        <mxCell id="KLS0kWJ8PBOq_Mr_JFed-4" value="apisix" style="rounded=1;whiteSpace=wrap;html=1;" vertex="1" parent="1">
          <mxGeometry x="120" y="490" width="120" height="60" as="geometry" />
        </mxCell>
        <mxCell id="KLS0kWJ8PBOq_Mr_JFed-5" value="consul" style="rounded=1;whiteSpace=wrap;html=1;" vertex="1" parent="1">
          <mxGeometry x="120" y="650" width="120" height="60" as="geometry" />
        </mxCell>
        <mxCell id="JfnjDIqwSYD1YhzqD_Qu-13" style="edgeStyle=none;curved=1;rounded=0;orthogonalLoop=1;jettySize=auto;html=1;exitX=0.5;exitY=0.5;exitDx=0;exitDy=0;exitPerimeter=0;entryX=0;entryY=0.5;entryDx=0;entryDy=0;fontSize=12;startSize=8;endSize=8;" edge="1" parent="1" source="KLS0kWJ8PBOq_Mr_JFed-6" target="JfnjDIqwSYD1YhzqD_Qu-6">
          <mxGeometry relative="1" as="geometry" />
        </mxCell>
        <mxCell id="KLS0kWJ8PBOq_Mr_JFed-6" value="Пользователь" style="shape=umlActor;verticalLabelPosition=bottom;verticalAlign=top;html=1;outlineConnect=0;" vertex="1" parent="1">
          <mxGeometry x="-150" y="490" width="30" height="60" as="geometry" />
        </mxCell>
        <mxCell id="KLS0kWJ8PBOq_Mr_JFed-18" value="" style="edgeStyle=orthogonalEdgeStyle;rounded=0;orthogonalLoop=1;jettySize=auto;html=1;exitX=0.5;exitY=1;exitDx=0;exitDy=0;entryX=0.5;entryY=0;entryDx=0;entryDy=0;dashed=1;endArrow=none;startFill=0;" edge="1" parent="1" source="KLS0kWJ8PBOq_Mr_JFed-4" target="KLS0kWJ8PBOq_Mr_JFed-17">
          <mxGeometry relative="1" as="geometry">
            <mxPoint x="180" y="550" as="sourcePoint" />
            <mxPoint x="180" y="650" as="targetPoint" />
          </mxGeometry>
        </mxCell>
        <mxCell id="KLS0kWJ8PBOq_Mr_JFed-17" value="Получить список сервисов" style="text;html=1;align=center;verticalAlign=middle;whiteSpace=wrap;rounded=0;" vertex="1" parent="1">
          <mxGeometry x="150" y="585" width="60" height="30" as="geometry" />
        </mxCell>
        <mxCell id="KLS0kWJ8PBOq_Mr_JFed-24" value="Регистрация" style="text;html=1;align=center;verticalAlign=middle;whiteSpace=wrap;rounded=0;" vertex="1" parent="1">
          <mxGeometry x="430" y="650" width="60" height="30" as="geometry" />
        </mxCell>
        <mxCell id="KLS0kWJ8PBOq_Mr_JFed-25" value="Роутинг" style="text;html=1;align=center;verticalAlign=middle;whiteSpace=wrap;rounded=0;" vertex="1" parent="1">
          <mxGeometry x="250" y="490" width="60" height="30" as="geometry" />
        </mxCell>
        <mxCell id="JfnjDIqwSYD1YhzqD_Qu-1" value="configSrv1" style="rounded=1;whiteSpace=wrap;html=1;" vertex="1" parent="1">
          <mxGeometry x="570" y="130" width="100" height="30" as="geometry" />
        </mxCell>
        <mxCell id="JfnjDIqwSYD1YhzqD_Qu-2" value="configSrv2" style="rounded=1;whiteSpace=wrap;html=1;" vertex="1" parent="1">
          <mxGeometry x="570" y="165" width="100" height="30" as="geometry" />
        </mxCell>
        <mxCell id="JfnjDIqwSYD1YhzqD_Qu-3" value="configSrv3" style="rounded=1;whiteSpace=wrap;html=1;" vertex="1" parent="1">
          <mxGeometry x="570" y="200" width="100" height="30" as="geometry" />
        </mxCell>
        <mxCell id="JfnjDIqwSYD1YhzqD_Qu-4" value="shard2 (shard2ReplSet)" style="text;strokeColor=none;fillColor=none;align=left;verticalAlign=middle;spacingLeft=4;spacingRight=4;overflow=hidden;points=[[0,0.5],[1,0.5]];portConstraint=eastwest;rotatable=0;whiteSpace=wrap;html=1;" vertex="1" parent="1">
          <mxGeometry x="780" y="330" width="120" height="40" as="geometry" />
        </mxCell>
        <mxCell id="JfnjDIqwSYD1YhzqD_Qu-8" style="edgeStyle=none;curved=1;rounded=0;orthogonalLoop=1;jettySize=auto;html=1;exitX=1;exitY=0.5;exitDx=0;exitDy=0;entryX=0;entryY=0.5;entryDx=0;entryDy=0;fontSize=12;startSize=8;endSize=8;" edge="1" parent="1" source="JfnjDIqwSYD1YhzqD_Qu-6" target="KLS0kWJ8PBOq_Mr_JFed-4">
          <mxGeometry relative="1" as="geometry" />
        </mxCell>
        <mxCell id="JfnjDIqwSYD1YhzqD_Qu-10" style="edgeStyle=none;curved=1;rounded=0;orthogonalLoop=1;jettySize=auto;html=1;exitX=0.5;exitY=0;exitDx=0;exitDy=0;entryX=0.5;entryY=1;entryDx=0;entryDy=0;fontSize=12;startSize=8;endSize=8;startArrow=classic;startFill=1;" edge="1" parent="1" source="JfnjDIqwSYD1YhzqD_Qu-6" target="JfnjDIqwSYD1YhzqD_Qu-9">
          <mxGeometry relative="1" as="geometry" />
        </mxCell>
        <mxCell id="JfnjDIqwSYD1YhzqD_Qu-6" value="CDN" style="rounded=1;whiteSpace=wrap;html=1;" vertex="1" parent="1">
          <mxGeometry x="-40" y="490" width="120" height="60" as="geometry" />
        </mxCell>
        <mxCell id="JfnjDIqwSYD1YhzqD_Qu-12" style="edgeStyle=orthogonalEdgeStyle;rounded=0;orthogonalLoop=1;jettySize=auto;html=1;exitX=1;exitY=0.5;exitDx=0;exitDy=0;entryX=0.5;entryY=0;entryDx=0;entryDy=0;fontSize=12;startSize=8;endSize=8;startArrow=classic;startFill=1;" edge="1" parent="1" source="JfnjDIqwSYD1YhzqD_Qu-9" target="KLS0kWJ8PBOq_Mr_JFed-4">
          <mxGeometry relative="1" as="geometry" />
        </mxCell>
        <mxCell id="JfnjDIqwSYD1YhzqD_Qu-9" value="Кеш CDN" style="rounded=1;whiteSpace=wrap;html=1;" vertex="1" parent="1">
          <mxGeometry x="-40" y="400" width="120" height="60" as="geometry" />
        </mxCell>
      </root>
    </mxGraphModel>
  </diagram>
</mxfile>
